{"title":"A.Resurrection.2013.DVDRiP.AC3.5.1.XviD-Ace","uid":8276252,"size":1484263953,"categoryP":"video","categoryS":"movies","magnet":"?xt=urn:btih:8435cdc78ab2dae79eb928e106cf84f61a696342&amp;dn=A.Resurrection.2013.DVDRiP.AC3.5.1.XviD-Ace&amp;tr=udp%3A%2F%2Ftracker.openbittorrent.com%3A80&amp;tr=udp%3A%2F%2Fopen.demonii.com%3A1337&amp;tr=udp%3A%2F%2Ftracker.coppersurfer.tk%3A6969&amp;tr=udp%3A%2F%2Fexodus.desync.com%3A6969","seeders":1,"leechers":2,"uploader":"Acesn8s","files":-1,"time":1363721386,"description":"A.Resurrection.2013.DVDRiP.AC3.5.1.XviD-Acesn8s (aka &quot;The Sibling)\n\nFormat                                   : AVI\nFormat/Info                              : Audio Video Interleave\nFile size                                : 1.36 GiB\nDuration                                 : 1h 30mn\nOverall bit rate                         : 2 160 Kbps\n\nVideo\nID                                       : 0\nFormat                                   : MPEG-4 Visual\nFormat profile                           : Advanced Simple@L5\nFormat settings, BVOP                    : 1\nFormat settings, QPel                    : No\nFormat settings, GMC                     : No warppoints\nFormat settings, Matrix                  : Default (H.263)\nMuxing mode                              : Packed bitstream\nCodec ID                                 : XVID\nCodec ID/Hint                            : XviD\nDuration                                 : 1h 30mn\nBit rate                                 : 1 703 Kbps\nWidth                                    : 640 pixels\nHeight                                   : 352 pixels\nDisplay aspect ratio                     : 16:9\nFrame rate                               : 29.970 fps\nColor space                              : YUV\nChroma subsampling                       : 4:2:0\nBit depth                                : 8 bits\nScan type                                : Progressive\nCompression mode                         : Lossy\nBits/(Pixel*Frame)                       : 0.252\nStream size                              : 1.08 GiB (79%)\nWriting library                          : XviD 1.2.1 (UTC 2008-12-04)\n\nAudio\nID                                       : 1\nFormat                                   : AC-3\nFormat/Info                              : Audio Coding 3\nMode extension                           : CM (complete main)\nFormat settings, Endianness              : Big\nCodec ID                                 : 2000\nDuration                                 : 1h 30mn\nBit rate mode                            : Constant\nBit rate                                 : 448 Kbps\nChannel(s)                               : 6 channels\nChannel positions                        : Front: L C R, Side: L R, LFE\nSampling rate                            : 48.0 KHz\nBit depth                                : 16 bits\nCompression mode                         : Lossy\nStream size                              : 290 MiB (21%)\nAlignment                                : Aligned on interleaves\nInterleave, duration                     : 64 ms (1.92 video frames)\nInterleave, preload duration             : 192 ms\n\nSource                                   : NTSC DVDR\n \n\nCast: Mischa Barton, Devon Sawa, Michael Clarke Duncan\n\nPlot: Jessie (Mischa Barton), a school psychologist tries to help Eli \n(Jonathan Michael Trautmann) who believes his dead brother is coming \nback from the grave to avenge his death.\n\nIMDb:\n &lt;a href=&quot;\nhttp://www.imdb.com/title/tt1817276/&quot; rel=&quot;nofollow&quot; target=&quot;_NEW&quot;&gt;\nhttp://www.imdb.com/title/tt1817276/&lt;/a&gt;\n\nScreens:\n &lt;a href=&quot;\nhttp://imageshack.us/a/img818/261/vlcsnap00001ar.png&quot; rel=&quot;nofollow&quot; target=&quot;_NEW&quot;&gt;\nhttp://imageshack.us/a/img818/261/vlcsnap00001ar.png&lt;/a&gt;\n &lt;a href=&quot;\nhttp://imageshack.us/a/img826/4664/vlcsnap00002ry.png&quot; rel=&quot;nofollow&quot; target=&quot;_NEW&quot;&gt;\nhttp://imageshack.us/a/img826/4664/vlcsnap00002ry.png&lt;/a&gt;\n &lt;a href=&quot;\nhttp://imageshack.us/a/img826/7421/vlcsnap00003sf.png&quot; rel=&quot;nofollow&quot; target=&quot;_NEW&quot;&gt;\nhttp://imageshack.us/a/img826/7421/vlcsnap00003sf.png&lt;/a&gt;\n &lt;a href=&quot;\nhttp://imageshack.us/a/img545/5936/vlcsnap00004z.png&quot; rel=&quot;nofollow&quot; target=&quot;_NEW&quot;&gt;\nhttp://imageshack.us/a/img545/5936/vlcsnap00004z.png&lt;/a&gt;\n &lt;a href=&quot;\nhttp://imageshack.us/a/img705/6581/vlcsnap00005dy.png&quot; rel=&quot;nofollow&quot; target=&quot;_NEW&quot;&gt;\nhttp://imageshack.us/a/img705/6581/vlcsnap00005dy.png&lt;/a&gt;","torrent":{"xt":"urn:btih:8435cdc78ab2dae79eb928e106cf84f61a696342","amp;dn":"A.Resurrection.2013.DVDRiP.AC3.5.1.XviD-Ace","amp;tr":["udp%3A%2F%2Ftracker.openbittorrent.com%3A80","udp%3A%2F%2Fopen.demonii.com%3A1337","udp%3A%2F%2Ftracker.coppersurfer.tk%3A6969","udp%3A%2F%2Fexodus.desync.com%3A6969"],"infoHash":"8435cdc78ab2dae79eb928e106cf84f61a696342","infoHashBuffer":{"type":"Buffer","data":[132,53,205,199,138,178,218,231,158,185,40,225,6,207,132,246,26,105,99,66]},"announce":[],"urlList":[]}}